<?xml version="1.0" encoding="utf-8"?>
<!-- Generator: Adobe Illustrator 15.1.0, SVG Export Plug-In . SVG Version: 6.00 Build 0)  -->
<!DOCTYPE svg PUBLIC "-//W3C//DTD SVG 1.1//EN" "http://www.w3.org/Graphics/SVG/1.1/DTD/svg11.dtd">
<svg version="1.1" id="Ebene_1" xmlns="http://www.w3.org/2000/svg" xmlns:xlink="http://www.w3.org/1999/xlink" x="0px" y="0px"
	 width="200px" height="73.561px" viewBox="0 0 200 73.561" enable-background="new 0 0 200 73.561" xml:space="preserve">
<g>
	<path d="M151.944,43.771c0-3.057-2.316-4.584-6.95-4.584c-3.302,0-5.42,0.795-6.354,2.386c-0.876-1.591-3.043-2.386-6.503-2.386
		c-4.653,0-6.98,1.527-6.98,4.584v8.898c0,0.796,0.434,1.192,1.299,1.192c0.904,0,1.356-0.397,1.356-1.193v-9.247
		c0-1.391,1.447-2.088,4.342-2.088c3.39,0,5.083,0.825,5.083,2.477v8.858c0,0.796,0.458,1.193,1.374,1.193
		c0.855,0,1.281-0.397,1.281-1.193V43.81c0-1.651,1.701-2.477,5.102-2.477c2.863,0,4.296,0.697,4.296,2.088v9.247
		c0,0.796,0.437,1.193,1.312,1.193c0.896,0,1.343-0.396,1.343-1.192V43.771z M123.34,41.333c0.555,0,0.834-0.362,0.834-1.088
		c0-0.706-0.329-1.059-0.984-1.059h-1.223c-4.474,0-6.711,1.468-6.711,4.404v9.078c0,0.796,0.437,1.192,1.312,1.192
		c0.896,0,1.344-0.397,1.344-1.193v-9.098c0-1.491,1.262-2.237,3.786-2.237H123.34z M112.72,43.651c0-2.977-2.287-4.464-6.861-4.464
		h-5.249c-4.733,0-7.1,1.498-7.1,4.493v5.626c0,2.938,2.337,4.405,7.01,4.405h5.339c4.574,0,6.861-1.468,6.861-4.405V43.651z
		 M110.006,49.275c0,1.468-1.243,2.201-3.729,2.201h-6.054c-2.706,0-4.058-0.733-4.058-2.201v-5.621c0-1.547,1.352-2.32,4.058-2.32
		h6.054c2.486,0,3.729,0.694,3.729,2.083V49.275z M91.87,36.89c0.657,0,0.984-0.353,0.984-1.059c0-0.726-0.337-1.088-1.013-1.088
		h-1.612c-4.096,0-6.144,1.463-6.144,4.39v13.534c0,0.796,0.427,1.195,1.282,1.195s1.284-0.397,1.284-1.193V41.333h5.25
		c0.635,0,0.953-0.372,0.953-1.118c0-0.686-0.318-1.028-0.953-1.028h-5.25c0.019-1.531,1.024-2.297,3.012-2.297H91.87z
		 M81.938,48.969c0-2.506-1.905-3.758-5.716-3.758h-6.371c-2.043,0-3.066-0.537-3.066-1.61v-0.896c0-0.914,0.865-1.372,2.596-1.372
		h3.727c0.776,0,1.164-0.362,1.164-1.088c0-0.706-0.388-1.059-1.164-1.059h-3.101c-3.918,0-5.876,1.179-5.876,3.535v0.952
		c0,2.456,2.047,3.686,6.144,3.686h6.264c1.789,0,2.684,0.533,2.684,1.599v0.858c0,1.105-0.795,1.659-2.385,1.659H65.114
		c-0.774,0-1.163,0.382-1.163,1.148c0,0.727,0.389,1.087,1.163,1.087H76.39c3.699,0,5.548-1.292,5.548-3.877V48.969z M61.655,43.146
		c0-2.641-2.353-3.959-7.059-3.959h-5.121c-4.667,0-7,1.318-7,3.959v9.523c0,0.796,0.442,1.192,1.327,1.192
		c0.885,0,1.328-0.397,1.328-1.193v-9.545c0-1.193,1.21-1.79,3.631-1.79H55.4c2.4,0,3.6,0.597,3.6,1.79v9.545
		c0,0.796,0.443,1.193,1.328,1.193c0.885,0,1.327-0.396,1.327-1.192V43.146z M39.971,43.532c0-2.896-2.07-4.345-6.205-4.345h-2.804
		c-0.637,0-0.955,0.343-0.955,1.028c0,0.746,0.318,1.118,0.955,1.118h3.222c1.968,0,3.042,0.706,3.221,2.118H25.862
		c-4.256,0-6.384,1.415-6.384,4.248v1.914c0,2.731,2.178,4.098,6.532,4.098h7.756c4.135,0,6.205-1.418,6.205-4.255V43.532z
		 M37.435,48.686c0,1.859-1.066,2.79-3.198,2.79H25.45c-2.212,0-3.318-0.614-3.318-1.841v-1.987c0-1.307,1.037-1.96,3.109-1.96
		h12.194V48.686z M20.224,41.333c0.556,0,0.835-0.362,0.835-1.088c0-0.706-0.328-1.059-0.985-1.059h-1.222
		c-4.475,0-6.712,1.468-6.712,4.404v9.078c0,0.796,0.437,1.192,1.313,1.192c0.894,0,1.342-0.397,1.342-1.193v-9.098
		c0-1.491,1.262-2.237,3.789-2.237H20.224z M10.321,41.333c0.735,0,1.104-0.362,1.104-1.088c0-0.706-0.369-1.059-1.104-1.059h-5.28
		v-3.483c0-0.78-0.423-1.17-1.267-1.17c-0.926,0-1.388,0.39-1.388,1.17v3.483H1.09C0.363,39.187,0,39.53,0,40.215
		c0,0.746,0.363,1.118,1.09,1.118h1.296v11.335c0,0.796,0.454,1.193,1.358,1.193c0.865,0,1.297-0.397,1.297-1.193V41.333H10.321z"/>
</g>
<g>
	<defs>
		<path id="SVGID_1_" d="M120.74,3.926h21.464c5.479,0,8.218,1.455,8.218,4.363v4.364c0,2.385-2.441,3.576-7.328,3.576H120.74V3.926
			z M117.336,0c-1.082,0-1.623,0.524-1.623,1.57v29.946c0,1.431,0.855,2.147,2.566,2.147c1.639,0,2.461-0.716,2.461-2.146V19.845
			l28.95,13.504c0.313,0.209,0.628,0.314,0.941,0.314c0.662,0,1.196-0.264,1.597-0.786c0.401-0.523,0.603-1.081,0.603-1.675
			c0-0.768-0.438-1.361-1.309-1.781l-21.098-9.267h12.197c8.481,0,12.722-2.668,12.722-8.009V8.534
			c0-5.689-4.624-8.534-13.873-8.534H117.336z M180.629,0c-1.326,0-1.987,0.646-1.987,1.937c0,1.326,0.661,1.989,1.987,1.989h8.377
			c3.98,0,5.968,1.239,5.968,3.717v3.454c0,2.48-2.111,3.718-6.334,3.718h-15.916c-9.215,0-13.82,2.654-13.82,7.958v8.952
			c0,1.118,0.542,1.674,1.624,1.674h37.64c1.222,0,1.833-0.67,1.833-2.013c0-1.274-0.611-1.912-1.833-1.912h-34.342v-6.787
			c0-2.56,2.687-3.841,8.061-3.841h16.179c7.955,0,11.936-2.808,11.936-8.428V8.271C200,2.757,196.109,0,188.325,0H180.629z"/>
	</defs>
	<clipPath id="SVGID_2_">
		<use xlink:href="#SVGID_1_"  overflow="visible"/>
	</clipPath>
	
		<linearGradient id="SVGID_3_" gradientUnits="userSpaceOnUse" x1="-4.882813e-004" y1="73.561" x2="0.9995" y2="73.561" gradientTransform="matrix(84.2874 0 0 84.2874 115.6953 -6183.4243)">
		<stop  offset="0" style="stop-color:#6AACDA"/>
		<stop  offset="4.395600e-004" style="stop-color:#6AACDA"/>
		<stop  offset="0.0823" style="stop-color:#64A7D4"/>
		<stop  offset="0.1891" style="stop-color:#5498C4"/>
		<stop  offset="0.309" style="stop-color:#397FAA"/>
		<stop  offset="0.3098" style="stop-color:#397FAA"/>
		<stop  offset="0.6242" style="stop-color:#1F6881"/>
		<stop  offset="0.8696" style="stop-color:#09416B"/>
		<stop  offset="1" style="stop-color:#003263"/>
	</linearGradient>
	<rect x="115.713" clip-path="url(#SVGID_2_)" fill="url(#SVGID_3_)" width="84.287" height="33.663"/>
</g>
<g>
	<path fill="#707172" d="M196.657,67.312c-1.096,0-1.426-0.436-1.426-1.389c0-1.043,0.475-1.4,1.453-1.4
		c1.123,0,1.546,0.266,1.546,1.4C198.23,66.968,197.769,67.312,196.657,67.312 M197.306,70.336c1.189,0,1.625,0.107,1.625,1.109
		c0,0.873-0.596,1.229-1.93,1.229c-1.492,0-1.876-0.329-1.876-1.241c0-0.515,0.198-0.753,0.739-1.163
		C195.864,70.27,196.83,70.336,197.306,70.336 M196.988,73.561c1.863,0,2.945-0.622,2.945-2.153c0-1.573-0.674-1.943-2.563-1.943
		c-1.479,0-1.599-0.079-1.599-0.606c0-0.173,0.237-0.755,0.237-0.755c0.146,0.028,0.529,0.054,0.647,0.054
		c1.718,0,2.564-0.502,2.564-2.233c0-0.699-0.174-1.03-0.41-1.28H200v-0.846l-1.929,0.04c0,0-0.713-0.173-1.374-0.173
		c-1.466,0-2.457,0.635-2.457,2.259c0,1.229,0.489,1.744,1.03,1.996c0,0-0.437,0.793-0.437,1.043c0,0.41,0.12,0.754,0.357,0.912
		c-0.688,0.515-1.043,0.872-1.043,1.638C194.148,73.097,194.9,73.561,196.988,73.561 M187.768,70.403v-5.336
		c0,0,1.017-0.49,1.889-0.49c1.203,0,1.4,0.647,1.4,2.404v3.422h0.978v-3.435c0-2.404-0.41-3.304-2.22-3.304
		c-0.938,0-2.047,0.569-2.047,0.569v-0.437h-0.992v6.605H187.768z M183.183,62.304h0.977v-1.148h-0.977V62.304z M183.183,70.403
		h0.977v-6.606h-0.977V70.403z M178.162,70.403h0.991v-4.795c0,0,1.057-0.675,2.298-0.911v-1.032
		c-1.28,0.239-2.298,1.005-2.298,1.005v-0.872h-0.991V70.403z M174.477,63.797v5.364c0,0-0.938,0.489-1.811,0.489
		c-1.242,0-1.399-0.595-1.399-2.42v-3.434h-0.978v3.449c0,2.442,0.382,3.289,2.232,3.289c0.925,0,1.955-0.556,1.955-0.556v0.423
		h0.978v-6.605H174.477z M168.413,64.697v-0.899h-2.088v-2.021h-0.99v2.021h-0.938v0.899h0.938v3.435
		c0,1.901,0.476,2.416,1.836,2.416c0.462,0,1.334-0.145,1.334-0.145l-0.054-0.858c0,0-0.805,0.066-1.175,0.066
		c-0.872,0-0.951-0.396-0.951-1.836v-3.078H168.413z M161.267,63.665c-1.971,0-2.736,0.925-2.736,3.316
		c0,2.59,0.608,3.555,2.722,3.555c0.596,0,1.837-0.187,1.837-0.187l-0.041-0.857c0,0-1.069,0.119-1.571,0.119
		c-1.624,0-1.929-0.7-1.929-2.63c0-1.743,0.41-2.378,1.929-2.378c0.502,0,1.56,0.119,1.56,0.119l0.026-0.858
		C163.063,63.864,161.873,63.665,161.267,63.665 M155.32,67.167v2.114c0,0-1.149,0.396-2.153,0.396
		c-0.595,0-0.938-0.423-0.938-1.188c0-0.675,0.33-1.083,1.136-1.162L155.32,67.167z M156.297,65.819
		c0-1.493-0.686-2.154-2.086-2.154c-1.017,0-2.602,0.265-2.602,0.265l0.038,0.859c0,0,1.56-0.173,2.523-0.173
		c0.728,0,1.149,0.371,1.149,1.203v0.542l-2.087,0.197c-1.361,0.119-2.009,0.688-2.009,1.955c0,1.295,0.647,2.022,1.797,2.022
		c1.255,0,2.444-0.503,2.444-0.503c0.345,0.356,0.767,0.503,1.559,0.503l0.041-0.859c-0.424-0.053-0.74-0.185-0.769-0.607V65.819z
		 M147.948,64.697h1.93v-0.899h-1.93v-0.582c0-1.215,0.252-1.532,0.991-1.532c0.383,0,1.123,0.026,1.123,0.026l0.014-0.819
		c0,0-0.872-0.092-1.335-0.092c-1.295,0-1.771,0.502-1.771,2.404v0.595h-0.832v0.899h0.832v5.706h0.978V64.697z M143.232,63.797
		v5.364c0,0-0.938,0.489-1.811,0.489c-1.241,0-1.399-0.595-1.399-2.42v-3.434h-0.978v3.449c0,2.442,0.382,3.289,2.232,3.289
		c0.924,0,1.955-0.556,1.955-0.556v0.423h0.978v-6.605H143.232z M132.228,70.403v-5.336c0,0,1.017-0.49,1.889-0.49
		c1.203,0,1.4,0.647,1.4,2.404v3.422h0.979v-3.435c0-2.404-0.41-3.304-2.22-3.304c-0.938,0-2.048,0.569-2.048,0.569v-0.437h-0.991
		v6.605H132.228z M127.538,67.167v2.114c0,0-1.149,0.396-2.154,0.396c-0.594,0-0.938-0.423-0.938-1.188
		c0-0.675,0.33-1.083,1.137-1.162L127.538,67.167z M128.516,65.819c0-1.493-0.687-2.154-2.089-2.154
		c-1.017,0-2.603,0.265-2.603,0.265l0.04,0.859c0,0,1.559-0.173,2.524-0.173c0.727,0,1.149,0.371,1.149,1.203v0.542l-2.088,0.197
		c-1.361,0.119-2.008,0.688-2.008,1.955c0,1.295,0.646,2.022,1.796,2.022c1.255,0,2.445-0.503,2.445-0.503
		c0.342,0.356,0.766,0.503,1.558,0.503l0.041-0.859c-0.423-0.053-0.741-0.185-0.767-0.607V65.819z M113.124,70.403v-5.336
		c0,0,0.884-0.49,1.771-0.49c1.201,0,1.387,0.595,1.387,2.418v3.408h0.99v-3.435c0-0.793-0.053-1.599-0.159-1.901
		c0.026-0.016,0.952-0.49,1.851-0.49c1.254,0,1.388,0.674,1.388,2.695v3.131h0.989v-3.435c0-2.445-0.436-3.304-2.231-3.304
		c-0.912,0-2.008,0.45-2.392,0.596c-0.265-0.317-0.66-0.502-1.216-0.555c-0.211-0.026-0.462-0.013-0.727,0.012
		c-0.858,0.054-1.651,0.529-1.651,0.529v-0.449h-0.991v6.605H113.124z M102.053,66.716c0-1.545,0.636-2.166,1.771-2.166
		c1.15,0,1.664,0.582,1.664,2.166H102.053z M103.797,69.637c-1.308,0-1.73-0.727-1.744-2.115h4.373l0.054-0.766
		c0-2.167-0.912-3.092-2.656-3.092c-1.678,0-2.774,0.966-2.774,3.475c0,2.246,0.647,3.396,2.628,3.396
		c1.071,0,2.564-0.212,2.564-0.212l-0.027-0.806C106.214,69.518,104.788,69.637,103.797,69.637 M93.941,63.797l1.863,6.605h1.982
		l1.876-6.605h-1.005l-1.611,5.759h-0.489l-1.585-5.759H93.941z M91.18,62.304h0.977v-1.148H91.18V62.304z M91.18,70.403h0.977
		v-6.606H91.18V70.403z M89.291,64.697v-0.899h-2.087v-2.021h-0.991v2.021h-0.938v0.899h0.938v3.435
		c0,1.901,0.476,2.416,1.836,2.416c0.463,0,1.335-0.145,1.335-0.145l-0.053-0.858c0,0-0.806,0.066-1.176,0.066
		c-0.872,0-0.951-0.396-0.951-1.836v-3.078H89.291z M82.475,62.304h0.977v-1.148h-0.977V62.304z M82.475,70.403h0.977v-6.606h-0.977
		V70.403z M76.991,69.624c-0.779-0.013-1.506-0.357-1.506-2.471c0-1.73,0.436-2.589,1.824-2.589c0.529,0,1.36,0.118,1.559,0.146
		v4.426C78.868,69.135,77.876,69.624,76.991,69.624 M79.859,61.156h-0.991v2.682c-0.199-0.04-1.044-0.173-1.612-0.173
		c-2.022,0-2.761,1.149-2.761,3.462c0,2.854,1.083,3.409,2.364,3.409c0.991,0,2.009-0.569,2.009-0.569v0.437h0.991V61.156z
		 M69.421,69.624c-0.779-0.013-1.506-0.357-1.506-2.471c0-1.73,0.436-2.589,1.823-2.589c0.53,0,1.361,0.118,1.56,0.146v4.426
		C71.298,69.135,70.306,69.624,69.421,69.624 M72.288,61.156h-0.99v2.682c-0.199-0.04-1.045-0.173-1.612-0.173
		c-2.021,0-2.761,1.149-2.761,3.462c0,2.854,1.083,3.409,2.364,3.409c0.991,0,2.009-0.569,2.009-0.569v0.437h0.99V61.156z
		 M63.715,67.167v2.114c0,0-1.149,0.396-2.154,0.396c-0.594,0-0.938-0.423-0.938-1.188c0-0.675,0.331-1.083,1.137-1.162
		L63.715,67.167z M64.692,65.819c0-1.493-0.687-2.154-2.088-2.154c-1.017,0-2.602,0.265-2.602,0.265l0.04,0.859
		c0,0,1.558-0.173,2.524-0.173c0.726,0,1.149,0.371,1.149,1.203v0.542l-2.088,0.197c-1.361,0.119-2.008,0.688-2.008,1.955
		c0,1.295,0.647,2.022,1.797,2.022c1.255,0,2.444-0.503,2.444-0.503c0.343,0.356,0.766,0.503,1.559,0.503l0.04-0.859
		c-0.423-0.053-0.741-0.185-0.767-0.607V65.819z"/>
</g>
</svg>
